<?xml version="1.0" encoding="UTF-8"?>
<!DOCTYPE svg PUBLIC "-//W3C//DTD SVG 1.1//EN" "http://www.w3.org/Graphics/SVG/1.1/DTD/svg11.dtd">
<!-- Creator: CorelDRAW -->
<svg xmlns="http://www.w3.org/2000/svg" xml:space="preserve" width="100%" height="100%" version="1.1" style="shape-rendering:geometricPrecision; text-rendering:geometricPrecision; image-rendering:optimizeQuality; fill-rule:evenodd; clip-rule:evenodd"
viewBox="0 0 3968.75 3465.74"
 xmlns:xlink="http://www.w3.org/1999/xlink"
 xmlns:xodm="http://www.corel.com/coreldraw/odm/2003">
 <defs>
  <style type="text/css">
   <![CDATA[
    .fil0 {fill:#2F9C95}
    .fil1 {fill:#D26A29}
   ]]>
  </style>
 </defs>
 <g id="Camada_x0020_1">
  <metadata id="CorelCorpID_0Corel-Layer"/>
  <g id="_2579900503936">
   <path class="fil0" d="M1977.56 1323.52c-146.42,-274.41 -387.86,-541.88 -630.96,-735.87 -287.31,-229.32 -505.9,-358.19 -886.06,-496.96 -224.72,-81.95 -443.44,-175.68 -453.39,51.57 -3.3,74.42 0.06,157.32 0.35,232.68 0.41,117.04 -25.55,349.01 40.39,417.53 65.82,68.24 354.01,94.2 643.73,274.48 49.46,30.79 86.84,53.81 138.77,93.31l419.77 375.03c162.56,161.44 308.21,542.94 741.23,532.34 146.95,-3.65 250.45,-56.99 337.88,-115.8 95.73,-64.35 204.7,-209.77 278.3,-297.44 23.73,-28.31 26.73,-35.91 49.04,-61.52 666.17,-764.54 1139.51,-686.18 1265.15,-801.81 66.06,-60.7 43.04,-294.78 43.33,-427.19 0.83,-400.53 20.2,-431.08 -467.93,-275.01 -307.68,98.38 -638.14,289.31 -879.7,492.08 -21.55,18.01 -37.86,34.61 -59.41,50.92l-183.51 170.92c-170.09,176.62 -266.64,289.42 -396.99,520.74l0.01 0z"/>
   <path class="fil1" d="M3938.67 1176.87c-189.58,-95.2 -466.64,102.38 -600.58,235.32 -125.23,124.34 -182.87,323.1 -187.52,510.26 -6.35,255.63 -16.89,507.32 -22.78,763.25 -2.83,124.93 -8.36,249.74 -11.37,375.97 -5,216.95 -103.14,543.53 298.85,329.99 268.94,-142.94 422.48,-392.69 497.08,-687.59 54.87,-217.07 37.85,-517.62 37.73,-748.12 -0.11,-144.89 16.14,-687.95 -11.42,-779.08l0.01 0z"/>
   <path class="fil1" d="M71.62 1156.14c-97.56,22.55 -67.94,126.11 -65.59,313.22 3.71,286.89 -3.88,954.76 24.2,1164.83 30.5,228.19 125.82,416.06 235.97,549 51.69,62.35 141.89,144.66 213.01,185.46 56.28,32.26 205.94,114.98 286.6,93.61 94.9,-25.14 60.05,-147.96 57.46,-314.27l-21.6 -1158.83c-1.07,-285.42 -48.46,-434.37 -201.77,-587.68 -103.73,-103.8 -356.72,-285.13 -528.28,-245.33l0 -0.01z"/>
  </g>
 </g>
</svg>
