<?xml version="1.0" encoding="UTF-8"?>
<!DOCTYPE svg PUBLIC "-//W3C//DTD SVG 1.1//EN" "http://www.w3.org/Graphics/SVG/1.1/DTD/svg11.dtd">
<!-- Creator: CorelDRAW -->
<svg xmlns="http://www.w3.org/2000/svg" xml:space="preserve" width="100%" height="100%" version="1.1" style="shape-rendering:geometricPrecision; text-rendering:geometricPrecision; image-rendering:optimizeQuality; fill-rule:evenodd; clip-rule:evenodd"
viewBox="0 0 1693.35 647.77"
 xmlns:xlink="http://www.w3.org/1999/xlink"
 xmlns:xodm="http://www.corel.com/coreldraw/odm/2003">
 <defs>
  <style type="text/css">
   <![CDATA[
    .fil1 {fill:#D26A29}
    .fil0 {fill:#F4F4F4}
   ]]>
  </style>
 </defs>
 <g id="Camada_x0020_1">
  <metadata id="CorelCorpID_0Corel-Layer"/>
  <path class="fil0" d="M335.9 283.29c-24.86,-46.61 -65.88,-92.04 -107.17,-124.99 -48.79,-38.95 -85.93,-60.84 -150.49,-84.41 -38.17,-13.92 -75.32,-29.84 -77.02,8.76 -0.55,12.64 0.02,26.72 0.06,39.52 0.08,19.88 -4.33,59.28 6.87,70.92 11.17,11.59 60.12,16 109.34,46.62 8.4,5.23 14.74,9.14 23.56,15.85l71.3 63.7c27.62,27.42 52.36,92.22 125.9,90.42 24.96,-0.62 42.55,-9.68 57.39,-19.67 16.27,-10.93 34.78,-35.63 47.28,-50.52 4.03,-4.81 4.54,-6.1 8.32,-10.45 113.15,-129.86 193.56,-116.55 214.9,-136.19 11.21,-10.31 7.31,-50.07 7.36,-72.56 0.14,-68.03 3.43,-73.22 -79.48,-46.71 -52.26,16.71 -108.39,49.14 -149.43,83.58 -3.66,3.06 -6.42,5.88 -10.09,8.65l-31.16 29.03c-28.89,30 -45.29,49.16 -67.44,88.45z"/>
  <path class="fil1" d="M669 258.38c-32.2,-16.17 -79.25,17.39 -102,39.97 -21.27,21.12 -31.07,54.88 -31.86,86.67 -1.08,43.42 -2.87,86.17 -3.86,129.64 -0.49,21.22 -1.43,42.42 -1.93,63.86 -0.85,36.85 -17.53,92.32 50.75,56.05 45.69,-24.28 71.76,-66.7 84.43,-116.79 9.32,-36.87 6.43,-87.92 6.41,-127.07 -0.01,-24.61 2.75,-116.85 -1.94,-132.33z"/>
  <path class="fil1" d="M12.18 254.86c-16.58,3.83 -11.55,21.42 -11.14,53.2 0.62,48.73 -0.67,162.17 4.1,197.85 5.19,38.76 21.37,70.67 40.09,93.25 8.78,10.59 24.1,24.57 36.17,31.5 9.57,5.48 34.98,19.53 48.68,15.9 16.12,-4.27 10.21,-25.13 9.76,-53.38l-3.67 -196.83c-0.17,-48.48 -8.23,-73.78 -34.27,-99.82 -17.62,-17.63 -60.58,-48.43 -89.72,-41.67z"/>
  <path class="fil0" d="M862.27 71.44l-2.27 -3.17c-1.23,-1.81 -1.69,-2.76 -2.73,-4.22 -49.98,-5.6 -43.99,23.21 -43.95,64.54 0.03,17.91 0.05,35.8 0.05,53.71 -0.02,50.8 -6.96,52.88 25.74,52.49 9.7,-0.12 12.85,-0.37 16.9,-7.08 3.16,-11.58 0.97,-71.11 0.98,-88.38 0,-17.12 -1.84,-26.79 9.55,-35.18 8.22,-6.05 28.96,-6.73 36.44,-0.16 18.05,15.85 1.12,110.13 9.44,124.85 5.1,9.01 29.97,6.64 40.37,4.11 11.98,-27.33 -5.78,-107.11 10.28,-125.3 7.52,-8.51 24.01,-10.89 33.16,-2.06 18.51,17.88 0.72,113.34 11.09,124.95 6.45,7.23 33.41,5.94 39.86,0.08 3.22,-4.39 3.82,-123.25 -2.76,-140.9 -6.64,-17.85 -19.61,-30.34 -42.48,-31.07 -10.81,-0.35 -21.93,1.66 -31.34,4.57 -10.05,3.12 -17.49,8.61 -25.99,11.58 -10.62,-9.57 -17.6,-16.3 -39.36,-16.31 -15.58,-0.02 -33.44,5.83 -42.98,12.95z"/>
  <path class="fil0" d="M1082.14 112.78c8.73,3.04 29.03,2.23 40.26,1.57 7.39,-10.08 10.91,-23.21 32.47,-18.77 17.05,3.51 19.7,18.59 19.69,36.33 -24.09,-5.25 -58.82,-5.2 -79.42,5.71 -36.91,19.51 -39.35,99.36 35.61,100.63 29.61,0.49 58.87,1.06 78.04,-15.49 16.59,-14.33 10.26,-56.74 10.3,-81.64 0.04,-31.86 -1.71,-54.12 -22.11,-69.76 -36.23,-27.77 -131.66,-6.46 -114.84,41.42zm91.45 83.74l1.02 -26.75c-7.16,-3.71 -62.25,-14.48 -58.1,15.94 2.81,20.71 40.39,20.66 57.08,10.81z"/>
  <path class="fil0" d="M1057.18 360.44c9.57,3.57 28.94,4.34 40.41,1.91 10.76,-8.59 9.59,-21.99 34.87,-17.01 15.54,3.04 17.89,18.4 18.24,35.53 -52.88,-15.37 -121.94,5.63 -101.87,69.47 16.22,51.68 113.19,38.33 135.82,20.42 16.02,-12.67 11.14,-52.35 10.97,-80.82 -0.2,-33.92 -2.31,-53.46 -22.84,-68.95 -17.37,-13.1 -49.43,-15.83 -74.34,-10.08 -22.05,5.07 -47.17,23.72 -41.26,49.53zm93.17 83.25l0.27 -27.03c-18.15,-3.79 -61.17,-11 -58.26,15.62 1.17,10.61 11.46,15.16 23.34,17.36 18.9,3.51 22.73,0.53 34.65,-5.95z"/>
  <path class="fil0" d="M1421.74 429.21c-25.01,-2.2 -52.9,-7.01 -39.67,22.76 2.29,5.16 8.36,12.7 11.27,15.54 7.84,7.59 21.05,13.84 35.87,16.12 33.69,5.2 64.05,0.74 82.01,-19.28 17.22,-19.22 23.75,-74.54 -45.07,-87.68 -14.18,-2.7 -32.59,-2.78 -39.09,-12.9 -2.09,-12 9.29,-17.66 22.34,-17.76 20.74,-0.14 20.6,10.55 28.21,15.94 10.02,3.79 29.71,1.5 38.55,-1.47 16.68,-61.01 -141.65,-79.5 -135.12,8.06 2.86,38.19 39.5,41.77 74.6,49.24 51.8,11.01 -8.39,59.45 -33.9,11.43z"/>
  <path class="fil0" d="M1264.38 361.31c3.22,-18.23 30.18,-19.4 42.13,-9.31 7.28,6.15 4.97,11.07 19.24,11.41 11.77,0.26 20.51,1.12 28.89,-3.6 6.78,-8.59 -5.82,-50.37 -64.53,-50.49 -37.21,-0.08 -69.57,13.17 -70.99,50.14 -2.92,75.97 118.89,42.61 91.87,81.79 -8.21,11.9 -33.87,9.91 -44.16,-1.16 -6.44,-6.94 -5.67,-11.17 -17.76,-11.72 -5.11,-0.23 -26.44,-0.51 -29.77,1.67 -13.57,8.9 9.9,36.4 14.2,39.88 27.86,22.55 112.49,26.01 125.04,-24.07 4.8,-19.15 0.33,-36.36 -10.36,-47.74 -31.44,-33.51 -74.2,-13.29 -83.8,-36.8z"/>
  <path class="fil0" d="M951.27 413.73c-11.04,-2.13 -28.47,-2.44 -38.04,0.32 -5.81,5.37 -4.37,16.39 -11.67,24.21 -14.86,15.9 -50.94,14.61 -54.11,-37.51 -3.63,-59.66 36.85,-60.44 51.35,-49.06 10.53,8.27 8.08,18.12 14.77,22.77 6.49,3.03 32.72,5.12 38.68,-0.15 9.16,-8.09 -5.34,-57.59 -52.65,-64.71 -113.86,-17.15 -106.44,102.54 -86.13,141.61 8.42,16.18 27.15,30.26 50.89,33.2 79.45,9.78 98.57,-51.52 86.91,-70.68z"/>
  <path class="fil0" d="M1560.34 80.27c-0.01,26.56 -1.39,23.14 37.64,23.13l35.07 -0.02c-6.11,7.07 -12.47,16.56 -19.42,24.79l-39.48 49.99c-12.79,16.45 -13.82,12.78 -13.87,39.94 -0.04,21.85 9.62,17.31 46.65,17.23 17.3,0.04 34.62,0 51.91,-0.04 6.78,-0.01 18.08,0.61 24.34,-0.28 10.9,-1.58 9.84,-6.79 9.9,-16.91 -0.02,-9.27 1.8,-13.91 -3.81,-20.02 -12.2,-5.01 -56.73,0.89 -74.17,-2.04l72.07 -92.82c3.64,-6.41 2.43,-16.74 2.37,-24.87 -0.15,-18.85 -7.54,-14.8 -39.65,-14.86l-64.45 0.02c-17.88,-0.13 -25.09,-2.35 -25.1,16.76z"/>
  <path class="fil0" d="M1259.7 63.69c-24.91,-0.96 -27.11,0.1 -26.9,20.18 0.2,21.25 3.84,16.85 27.46,18.05l-0.2 78.58c0.01,47.39 29.47,54.1 64.05,54.24 23.29,0.1 22.78,3.44 22.73,-25.6 -0.06,-23.01 -13.39,-9.06 -29.42,-14.69 -16.2,-5.69 -11.93,-40.41 -11.92,-64.06l-0.11 -27.77c33.7,-2.06 41.4,4.15 41.37,-15.19 -0.04,-27.4 6.45,-23.81 -41.02,-24.15 -2.24,-43.67 8.12,-44.66 -22.81,-44.59 -32.63,0.08 -19.54,2.77 -23.23,45z"/>
  <path class="fil0" d="M978.59 277.17l0.02 182.58c0,7.99 0.54,14.57 3.28,19.88 17.65,3.04 9.68,2.02 27.17,1.77 15.94,-0.23 14.48,-4.75 14.48,-23.43l-0.04 -180.8c-0.05,-17.2 0.75,-14.5 -34.14,-14.49 -11.18,0.02 -10.77,3.42 -10.77,14.49z"/>
  <path class="fil0" d="M1413.61 73.86c-10.77,-14.38 -26.87,-12.65 -41.88,-7.06 -4.18,14.02 -2,64.21 -2,83.27l0.7 75.13c3.53,18.61 39.15,8.13 39.87,7.56 6.79,-5.29 4.47,-28.84 4.48,-41.51 0.01,-16.11 -0.01,-32.22 0.01,-48.34 0.02,-17.77 -1.97,-29.65 11.07,-36.05 13.71,-6.72 30.99,-0.81 40.07,-8.7 3.54,-7.69 2.39,-26.72 -0.12,-34.24 -21.1,-6.28 -38.57,2.42 -52.2,9.94z"/>
  <path class="fil0" d="M1420.02 547.29c-62.33,16.47 -37.7,116.94 26.96,98.14 31.59,-9.2 45.71,-50.7 25.38,-79.72 -2.81,-3.98 -9.04,-10.32 -12.46,-12.58 -10.5,-6.96 -25.55,-9.62 -39.88,-5.84zm6.95 14.18c-43.7,8.76 -29.57,81.75 14.69,69.5 15.72,-4.33 27.07,-23.24 22.79,-43.19 -3.43,-15.93 -17.86,-30.25 -37.48,-26.31z"/>
  <path class="fil0" d="M1489.53 85.64l0.14 116.34c0,23.02 -5.13,33.16 18.81,33.09 33.52,-0.1 25.39,2.14 25.38,-67.09l-0.03 -85.93c-0.02,-21.14 -1.63,-18.6 -30.72,-18.64 -15.92,-0.03 -13.53,6.94 -13.58,22.23z"/>
  <path class="fil0" d="M1139.63 645.5c23.62,-1.54 82.34,9.81 83.44,-47.89 0.39,-20.9 -10.39,-37.12 -23.12,-44.19 -16.23,-9.03 -40.25,-5.96 -60.45,-6.14l0.13 98.22zm15.07 -16.31c29.4,3.85 52.18,-3.18 51.98,-33.4 -0.17,-28.01 -23.14,-37 -51.52,-32.89l-0.46 66.29z"/>
  <path class="fil0" d="M998.27 645.35l15.09 -0.27 0.4 -36.42 16.97 0.12c4.87,8.53 16.16,28.68 23.08,36.3l17.64 0.35c-2.11,-5.84 -18.26,-31.1 -22.57,-37.1 0.29,-0.27 0.83,-1.01 0.97,-0.71l4.28 -2.53c2.82,-1.58 3.81,-1.79 6.57,-4.15 11.7,-10.06 13.33,-29.4 4.73,-41.72 -11.47,-16.47 -42.64,-12.02 -67.31,-11.85l0.15 97.98zm15.44 -51.51c18.12,-0.16 40.42,3.71 40.42,-16.01 0.02,-19.34 -24.34,-15.02 -39.97,-15.65l-0.45 31.66z"/>
  <path class="fil0" d="M974.35 547.33l-16.99 0.17c0.72,17.28 0.53,36.52 0.26,53.7 -0.28,18.48 -5.86,31.58 -25.55,31.23 -18.4,-0.35 -23.96,-11.32 -24.33,-29.39 -0.36,-17.74 -0.61,-38.07 0.34,-55.71l-15.92 0.02c1.74,45.51 -13.73,99.23 39.86,99.71 55.47,0.48 40.08,-55.51 42.33,-99.73z"/>
  <path class="fil0" d="M1371.51 623.61l-16.07 -5.89c-8.64,24.83 -56.6,17.32 -56.23,-21.91 0.28,-29.43 36.07,-51.33 58.33,-19.88l13.81 -6.42c-20.34,-42.42 -89.09,-26.6 -88.63,26.29 0.48,55.85 70.64,68.38 88.79,27.81z"/>
  <path class="fil0" d="M1506.92 0.77c-15.76,2.92 -23.9,13.68 -19.52,32.4 3.29,14.09 16.56,19.44 34.99,16.26 28.76,-4.96 25.63,-56.26 -15.47,-48.66z"/>
  <path class="fil0" d="M815.73 626.61l-9.61 6.2c11.24,18.48 46.33,19.94 56.97,-0.44 7.01,-13.4 3.25,-65.67 3.83,-85.04l-15.68 0c1.32,53.55 9.46,101 -35.51,79.28z"/>
  <polygon class="fil0" points="1094.83,645.65 1110.38,645.47 1110.11,635.18 1110.15,629.81 1110.16,620.87 1110.13,590.43 1110.13,554.63 1110.25,547.33 1094.84,547.32 "/>
  <polygon class="fil0" points="1245.43,645.28 1260.37,645.09 1260.69,548.1 1245.3,547.24 "/>
  <path class="fil0" d="M1103.97 541.7c1.44,-5.06 3.04,-9.85 8.03,-12.39 1.92,-0.98 4.57,-1.78 6.72,-1.88 1.84,-0.09 3.24,-0.48 4.89,-1.32 2.74,-1.38 5.2,-3.64 7.25,-5.9 -0.79,4.07 -2,9.54 -5.4,12.3 -2.56,2.03 -6.11,2.58 -9.29,2.59 -0.63,0.02 -1.12,0.04 -1.73,0.15 -3.75,0.71 -7.69,4 -10.47,6.45z"/>
 </g>
</svg>
